<svg width="399" height="247" viewBox="0 0 399 247" fill="none" xmlns="http://www.w3.org/2000/svg">
<path d="M0 43.1445H372.522C387.052 43.1445 398.83 54.9231 398.83 69.4526V219.935C398.83 234.464 387.052 246.243 372.522 246.243H26.3081C11.7785 246.243 0 234.464 0 219.935V43.1445Z" fill="#A39142"/>
<path d="M0 26.3081C0 11.7786 11.7785 0 26.3081 0H146.257C154.537 0 162.334 3.89785 167.302 10.5212L211.509 69.4513C224.519 86.7942 212.144 111.546 190.464 111.546H26.3081C11.7785 111.546 0 99.7677 0 85.2382V26.3081Z" fill="#A39142"/>
<rect x="14.7324" y="55.7725" width="369.365" height="177.843" rx="26.3081" fill="#605936"/>
</svg>
