<svg width="69" height="69" viewBox="0 0 69 69" fill="none" xmlns="http://www.w3.org/2000/svg">
<path d="M4.3125 60.375C4.3125 62.7604 6.23965 64.6875 8.625 64.6875H30.1875V43.125H4.3125V60.375ZM38.8125 64.6875H60.375C62.7604 64.6875 64.6875 62.7604 64.6875 60.375V43.125H38.8125V64.6875ZM64.6875 21.5625H59.0139C59.8494 19.9318 60.375 18.126 60.375 16.1719C60.375 9.63574 55.0518 4.3125 48.5156 4.3125C42.9094 4.3125 39.2842 7.18301 34.6348 13.517C29.9854 7.18301 26.3602 4.3125 20.7539 4.3125C14.2178 4.3125 8.89453 9.63574 8.89453 16.1719C8.89453 18.126 9.40664 19.9318 10.2557 21.5625H4.3125C1.92715 21.5625 0 23.4896 0 25.875V36.6562C0 37.8422 0.970312 38.8125 2.15625 38.8125H66.8438C68.0297 38.8125 69 37.8422 69 36.6562V25.875C69 23.4896 67.0729 21.5625 64.6875 21.5625ZM20.7404 21.5625C17.7621 21.5625 15.3498 19.1502 15.3498 16.1719C15.3498 13.1936 17.7621 10.7812 20.7404 10.7812C23.4223 10.7812 25.4033 11.226 32.3438 21.5625H20.7404ZM48.5156 21.5625H36.9123C43.8393 11.2529 45.7664 10.7812 48.5156 10.7812C51.4939 10.7812 53.9062 13.1936 53.9062 16.1719C53.9062 19.1502 51.4939 21.5625 48.5156 21.5625Z" fill="#888890"/>
</svg>
