<svg width="57" height="57" viewBox="0 0 57 57" fill="none" xmlns="http://www.w3.org/2000/svg">
<path d="M56.9999 28.4462C57.029 44.1488 44.2232 56.989 28.5207 57C21.7387 57.0048 15.5092 54.6407 10.6137 50.6896C9.34075 49.6623 9.2456 47.7545 10.4024 46.5977L11.6972 45.3029C12.6865 44.3136 14.266 44.2053 15.3621 45.0749C18.9688 47.937 23.5333 49.6453 28.5 49.6453C40.1878 49.6453 49.6451 40.1861 49.6451 28.5001C49.6451 16.8122 40.186 7.35485 28.5 7.35485C22.8903 7.35485 17.7954 9.53476 14.0123 13.093L19.8449 18.9256C21.0033 20.084 20.1829 22.0646 18.5449 22.0646H1.83871C0.823167 22.0646 0 21.2414 0 20.2258V3.51964C0 1.88158 1.98052 1.06117 3.1389 2.21944L8.8127 7.89325C13.9292 3.00354 20.8638 0 28.5 0C44.2221 0 56.9709 12.7308 56.9999 28.4462ZM36.2097 37.5L37.3385 36.0485C38.2737 34.8461 38.0571 33.1133 36.8547 32.1782L32.1774 28.5402V16.5484C32.1774 15.0252 30.9426 13.7903 29.4193 13.7903H27.5806C26.0574 13.7903 24.8226 15.0252 24.8226 16.5484V32.1374L32.3393 37.9838C33.5417 38.9189 35.2745 38.7024 36.2097 37.5Z" fill="white"/>
</svg>
