<svg width="57" height="57" viewBox="0 0 57 57" fill="none" xmlns="http://www.w3.org/2000/svg">
<g clip-path="url(#clip0_208_134)">
<path d="M28.5 0.890625C13.2528 0.890625 0.890625 13.2573 0.890625 28.5C0.890625 43.7516 13.2528 56.1094 28.5 56.1094C43.7472 56.1094 56.1094 43.7516 56.1094 28.5C56.1094 13.2573 43.7472 0.890625 28.5 0.890625ZM28.5 13.1367C31.0824 13.1367 33.1758 15.2301 33.1758 17.8125C33.1758 20.3949 31.0824 22.4883 28.5 22.4883C25.9176 22.4883 23.8242 20.3949 23.8242 17.8125C23.8242 15.2301 25.9176 13.1367 28.5 13.1367ZM34.7344 41.4141C34.7344 42.1518 34.1362 42.75 33.3984 42.75H23.6016C22.8638 42.75 22.2656 42.1518 22.2656 41.4141V38.7422C22.2656 38.0044 22.8638 37.4062 23.6016 37.4062H24.9375V30.2812H23.6016C22.8638 30.2812 22.2656 29.6831 22.2656 28.9453V26.2734C22.2656 25.5357 22.8638 24.9375 23.6016 24.9375H30.7266C31.4643 24.9375 32.0625 25.5357 32.0625 26.2734V37.4062H33.3984C34.1362 37.4062 34.7344 38.0044 34.7344 38.7422V41.4141Z" fill="white"/>
</g>
<defs>
<clipPath id="clip0_208_134">
<rect width="57" height="57" fill="white"/>
</clipPath>
</defs>
</svg>
